<?xml version="1.0" encoding="UTF-8"?>
<svg id="Capa_1" data-name="Capa 1" xmlns="http://www.w3.org/2000/svg" viewBox="0 0 1024 1024">
  <defs>
    <style>
      .cls-1 {
        fill: #fff;
        stroke-width: 0px;
      }
    </style>
  </defs>
  <path class="cls-1" d="m512,51.2c-254.71,0-463.12,208.4-463.12,463.12,0,229.24,166.72,419.12,386.7,458.48l2.74-2.24c-.14-.03-.28-.05-.42-.07v-326.5h-115.78v-129.67h115.78v-101.89c0-115.78,74.1-180.62,180.62-180.62,32.42,0,69.47,4.63,101.89,9.26v118.09h-60.21c-55.57,0-69.47,27.79-69.47,64.84v90.31h122.73l-20.84,129.67h-101.89v326.5c-1.41.26-2.82.5-4.23.75l1.92,1.57c219.98-39.36,386.7-229.24,386.7-458.48,0-254.71-208.4-463.12-463.12-463.12Z"/>
</svg>