<?xml version="1.0" encoding="UTF-8"?><svg id="uuid-7510a9b0-08df-42fe-839b-88016ebac7d5" xmlns="http://www.w3.org/2000/svg" viewBox="0 0 512 512"><polygon points="385.64 106.46 385.64 257.73 256 354.96 126.36 257.73 126.36 106.46 256 203.69 385.64 106.46" style="fill:#fff; stroke-width:0px;"/><polygon points="385.64 106.46 385.64 257.73 256 354.96 126.36 257.73 126.36 106.46 256 203.69 385.64 106.46" style="fill:#fff; stroke-width:0px;"/><path d="m106.36,91.46v138.77L0,150.46v-34.05c0-43.17,49.22-67.78,83.78-41.89l22.58,16.94Z" style="fill:#fff; stroke-width:0px;"/><path d="m106.36,91.46v138.77L0,150.46v-34.05c0-43.17,49.22-67.78,83.78-41.89l22.58,16.94Z" style="fill:#fff; stroke-width:0px;"/><path d="m116.36,262.73v185.32H34.91c-19.26,0-34.91-15.59-34.91-34.91v-237.68l106.36,79.77,10,7.5Z" style="fill:#fff; stroke-width:0px;"/><path d="m116.36,262.73v185.32H34.91c-19.26,0-34.91-15.59-34.91-34.91v-237.68l106.36,79.77,10,7.5Z" style="fill:#fff; stroke-width:0px;"/><path d="m512,116.41v34.05l-106.36,79.77V91.46l22.58-16.94c34.5-25.89,83.78-1.28,83.78,41.89Z" style="fill:#fff; stroke-width:0px;"/><path d="m512,116.41v34.05l-106.36,79.77V91.46l22.58-16.94c34.5-25.89,83.78-1.28,83.78,41.89Z" style="fill:#fff; stroke-width:0px;"/><path d="m405.64,255.23l106.36-79.77v237.68c0,19.26-15.59,34.91-34.91,34.91h-81.45v-185.32l10-7.5Z" style="fill:#fff; stroke-width:0px;"/><path d="m512,175.46v237.68c0,19.26-15.59,34.91-34.91,34.91h-81.45v-185.32l10-7.5,106.36-79.77Z" style="fill:#fff; stroke-width:0px;"/></svg>