<?xml version="1.0" encoding="UTF-8"?>
<svg id="Capa_1" data-name="Capa 1" xmlns="http://www.w3.org/2000/svg" viewBox="0 0 1024 1024">
  <defs>
    <style>
      .cls-1 {
        fill: #fff;
        stroke-width: 0px;
      }
    </style>
  </defs>
  <path class="cls-1" d="m210.17,75.37c-30.35,11.8-56.02,27.54-81.69,53.21-25.67,25.48-41.41,51.34-53.21,81.5-11.43,29.23-19.11,62.76-21.36,111.85-2.25,49.09-2.81,64.82-2.81,189.98s.56,140.89,2.81,189.98c2.25,49.09,10.12,82.62,21.36,111.85,11.8,30.35,27.54,56.02,53.21,81.69,25.67,25.67,51.34,41.41,81.69,53.21,29.23,11.43,62.76,19.11,111.85,21.36,49.09,2.25,64.82,2.81,189.98,2.81s140.89-.56,189.98-2.81c49.09-2.25,82.62-10.12,111.85-21.36,30.35-11.8,56.02-27.54,81.69-53.21,25.67-25.67,41.41-51.34,53.21-81.69,11.43-29.23,19.11-62.76,21.36-111.85,2.25-49.09,2.81-64.82,2.81-189.98s-.56-140.89-2.81-189.98c-2.25-49.09-10.12-82.62-21.36-111.85-11.8-30.16-27.54-56.02-53.02-81.5-25.67-25.67-51.34-41.41-81.69-53.21-29.23-11.43-62.76-19.11-111.85-21.36s-64.82-2.81-189.98-2.81-140.89.56-189.98,2.81c-49.27,2.06-82.81,9.93-112.04,21.36Zm488.06,61.45c44.97,2.06,69.32,9.56,85.62,15.93,21.55,8.43,36.91,18.36,53.02,34.47,16.11,16.11,26.04,31.48,34.47,53.02,6.37,16.3,13.86,40.66,15.93,85.62,2.25,48.52,2.62,63.14,2.62,186.23s-.56,137.71-2.62,186.23c-2.06,44.97-9.56,69.32-15.93,85.62-8.43,21.55-18.36,36.91-34.47,53.02-16.11,16.11-31.48,26.04-53.02,34.47-16.3,6.37-40.66,13.86-85.62,15.93-48.52,2.25-63.14,2.62-186.23,2.62s-137.71-.56-186.23-2.62c-44.97-2.06-69.32-9.56-85.62-15.93-21.55-8.43-36.91-18.36-53.02-34.47-16.11-16.11-26.04-31.48-34.47-53.02-6.37-16.3-13.86-40.66-15.93-85.62-2.25-48.52-2.62-63.14-2.62-186.23s.56-137.71,2.62-186.23c2.06-44.97,9.56-69.32,15.93-85.62,8.43-21.55,18.36-36.91,34.47-53.02,16.11-16.11,31.48-26.04,53.02-34.47,16.3-6.37,40.66-13.86,85.62-15.93,48.52-2.25,63.14-2.62,186.23-2.62s137.71.37,186.23,2.62Zm-422.86,375.27c0,130.77,106.04,236.63,236.63,236.63s236.63-106.04,236.63-236.63-105.86-236.63-236.63-236.63-236.63,105.86-236.63,236.63Zm390.26,0c0,84.87-68.76,153.63-153.63,153.63s-153.63-68.76-153.63-153.63,68.76-153.63,153.63-153.63,153.63,68.76,153.63,153.63Zm92.55-301.27c30.52,0,55.27,24.75,55.27,55.27s-24.75,55.27-55.27,55.27-55.27-24.75-55.27-55.27,24.75-55.27,55.27-55.27Z"/>
</svg>