<?xml version="1.0" encoding="UTF-8"?>
<svg id="Sin_contorno" data-name="Sin contorno" xmlns="http://www.w3.org/2000/svg" viewBox="0 0 1008 612">
  <defs>
    <style>
      .cls-1 {
        fill: #fff;
      }

      .cls-1, .cls-2 {
        stroke-width: 0px;
      }

      .cls-2 {
        fill: #65bffc;
      }
    </style>
  </defs>
  <g id="Variante_Clara" data-name="Variante Clara">
    <g id="Logo_Horizontal_-_Azul_Claro" data-name="Logo Horizontal - Azul Claro">
      <rect class="cls-1" x="424.22" y="214.03" width="453.38" height="50.14"/>
      <g id="Horizontal_Azul" data-name="Horizontal Azul">
        <path class="cls-2" d="m274.57,230.08c-5.22-24.02-12.69-40.62-21.39-46.36-7.4-4.35-28.44-9.13-86.63-9.13s-79.16,4.78-86.54,9.13c-8.79,5.74-16.26,22.34-21.48,46.36-6.96,30.69-9.59,77.41-9.59,128.2,0,33.22,3.05,62.54,4.79,73.92.44,3.05,2.61,5.22,5.66,5.22h214.31c3.12,0,5.28-2.17,5.66-5.22,1.81-11.38,4.86-40.7,4.86-73.92,0-50.78-2.61-97.5-9.66-128.2Zm-95.03,182.96l-6.47-12.94-6.49,12.94-6.47-12.94-6.49,12.94-6.84-13.7,6.84-13.7,6.49,12.94,6.47-12.94,6.49,12.94,6.47-12.94,6.86,13.7-6.86,13.7Zm80.22-56.95c-2.68,4.79-44.62,9.15-93.22,9.15s-90.47-4.35-93.15-9.15c-.88-1.74-2.19-13.13-2.19-23.65,0-36.71,3.93-90.98,9.15-102.8,2.25-4.35,28.07-8.27,86.19-8.27s84.02,3.91,86.19,8.27c5.22,11.82,9.15,66.1,9.15,102.8,0,10.52-1.24,21.9-2.12,23.65Z"/>
        <g>
          <path class="cls-2" d="m737.7,228.4c-1.32-1.03-3.19-1.55-5.6-1.55h-9.37v12.32h9.43c2.3,0,4.13-.56,5.49-1.67,1.36-1.12,2.04-2.63,2.04-4.51,0-2.03-.66-3.56-1.99-4.59Zm0,0c-1.32-1.03-3.19-1.55-5.6-1.55h-9.37v12.32h9.43c2.3,0,4.13-.56,5.49-1.67,1.36-1.12,2.04-2.63,2.04-4.51,0-2.03-.66-3.56-1.99-4.59Zm208.33-21.61H342.52c-5.49,0-9.98,4.49-9.98,9.98v45.12c0,5.49,4.49,9.98,9.98,9.98h603.51c5.49,0,9.99-4.49,9.99-9.98v-45.12c0-5.49-4.5-9.98-9.99-9.98Zm-464.45,50.81h-6.37v-26.2l-11.53,17.22h-.21l-11.43-17.12v26.1h-6.37v-36.54h6.84l11.12,17.28,11.11-17.28h6.84v36.54Zm88.89,0h-27.3v-36.54h27.04v5.79h-20.67v9.4h18.32v5.79h-18.32v9.76h20.93v5.8Zm86.91-30.59h-11.59v30.59h-6.47v-30.59h-11.59v-5.95h29.65v5.95Zm82.42,30.59l-9.01-12.74h-8.06v12.74h-6.37v-36.54h16.29c2.09,0,3.97.27,5.66.81s3.12,1.3,4.28,2.3c1.17.99,2.06,2.21,2.69,3.65.62,1.44.94,3.05.94,4.83,0,1.53-.22,2.89-.65,4.1-.44,1.2-1.04,2.26-1.8,3.18-.77.92-1.68,1.7-2.75,2.35-1.06.64-2.23,1.14-3.52,1.49l9.87,13.83h-7.57Zm101.68-11.02c-.94,2.3-2.27,4.31-3.97,6.03-1.71,1.73-3.72,3.09-6.05,4.1-2.34,1.01-4.91,1.51-7.73,1.51s-5.39-.49-7.72-1.48c-2.34-.99-4.34-2.34-6.01-4.05-1.67-1.7-2.97-3.7-3.91-6-.94-2.3-1.41-4.73-1.41-7.31s.47-5.01,1.41-7.31c.94-2.29,2.26-4.3,3.97-6.02,1.7-1.73,3.72-3.09,6.05-4.1,2.33-1.01,4.91-1.52,7.72-1.52s5.4.5,7.73,1.49c2.33.99,4.33,2.34,6,4.05,1.67,1.7,2.98,3.7,3.92,6,.94,2.3,1.41,4.73,1.41,7.31s-.47,5.01-1.41,7.3Zm-8.8-16.38c-1.09-1.19-2.41-2.13-3.94-2.82-1.53-.7-3.2-1.05-5.01-1.05s-3.47.34-4.99,1.02c-1.51.68-2.81,1.6-3.88,2.77-1.08,1.16-1.93,2.54-2.54,4.12-.6,1.58-.91,3.26-.91,5.04s.31,3.45.91,5.03c.61,1.59,1.47,2.97,2.56,4.15,1.1,1.19,2.41,2.13,3.94,2.82,1.53.7,3.2,1.05,5.01,1.05s3.48-.34,4.99-1.02,2.81-1.6,3.89-2.77c1.08-1.16,1.92-2.54,2.53-4.12.61-1.59.91-3.26.91-5.04s-.3-3.45-.91-5.04c-.61-1.58-1.46-2.96-2.56-4.14Zm-92.99,2.79c0-2.03-.66-3.56-1.99-4.59-1.32-1.03-3.19-1.55-5.6-1.55h-9.37v12.32h9.43c2.3,0,4.13-.56,5.49-1.67,1.36-1.12,2.04-2.63,2.04-4.51Z"/>
          <g>
            <path class="cls-1" d="m355.94,315.19c.66,1.42,1.88,2.75,3.64,3.98,1.76,1.23,4.18,2.37,7.27,3.41,3.09,1.04,7.01,2.13,11.77,3.27,5.23,1.33,9.86,2.8,13.91,4.41,4.04,1.61,7.39,3.58,10.05,5.9,2.66,2.32,4.68,5.03,6.06,8.11,1.38,3.08,2.07,6.71,2.07,10.88,0,4.74-.87,8.96-2.61,12.66-1.74,3.7-4.16,6.83-7.27,9.39-3.1,2.56-6.83,4.51-11.19,5.83-4.36,1.33-9.14,1.99-14.36,1.99-7.68,0-15.03-1.31-22.05-3.91-7.02-2.61-13.51-6.61-19.49-12.02l10.53-12.52c4.84,4.17,9.72,7.38,14.65,9.6,4.93,2.23,10.53,3.34,16.79,3.34,5.41,0,9.7-1.14,12.87-3.41,3.18-2.28,4.76-5.36,4.76-9.25,0-1.8-.31-3.41-.93-4.84s-1.76-2.73-3.42-3.91c-1.66-1.18-3.95-2.3-6.85-3.34-2.9-1.04-6.68-2.13-11.34-3.27-5.32-1.23-10.06-2.61-14.19-4.13-4.14-1.52-7.61-3.41-10.41-5.69-2.8-2.28-4.95-5.03-6.42-8.25-1.47-3.22-2.21-7.16-2.21-11.81,0-4.36.84-8.32,2.54-11.88,1.69-3.56,4.02-6.61,6.98-9.18,2.96-2.56,6.53-4.53,10.69-5.9,4.16-1.37,8.71-2.06,13.64-2.06,7.3,0,13.87,1.07,19.7,3.2,5.83,2.13,11.31,5.24,16.43,9.32l-9.39,13.23c-4.55-3.32-9.06-5.85-13.51-7.61-4.46-1.75-8.96-2.63-13.51-2.63-5.12,0-9.1,1.16-11.95,3.49-2.84,2.32-4.27,5.15-4.27,8.46,0,1.99.33,3.7,1,5.12Z"/>
            <path class="cls-1" d="m475.29,383.62v-9.25c-2.56,3.04-5.83,5.6-9.82,7.68-3.98,2.08-8.82,3.13-14.51,3.13-3.61,0-7.02-.5-10.24-1.49-3.22-1-6.05-2.46-8.46-4.41-2.42-1.94-4.36-4.36-5.83-7.25-1.47-2.89-2.2-6.23-2.2-10.03v-.28c0-4.08.76-7.63,2.28-10.67,1.52-3.03,3.63-5.55,6.33-7.54,2.7-1.99,5.93-3.48,9.67-4.48,3.75-1,7.8-1.49,12.16-1.49s8.41.28,11.59.85c3.18.57,6.23,1.33,9.18,2.28v-1.85c0-5.21-1.59-9.2-4.76-11.95-3.18-2.75-7.75-4.13-13.73-4.13-4.27,0-8.06.43-11.38,1.28-3.32.85-6.69,1.99-10.1,3.41l-4.69-13.8c4.17-1.9,8.44-3.41,12.8-4.55,4.36-1.14,9.62-1.71,15.79-1.71,11.19,0,19.49,2.77,24.89,8.32,5.41,5.55,8.11,13.35,8.11,23.4v44.52h-17.07Zm.43-31.86c-2.18-.85-4.77-1.56-7.75-2.13-2.99-.57-6.14-.85-9.46-.85-5.41,0-9.63,1.04-12.66,3.13-3.04,2.09-4.55,5.07-4.55,8.96v.28c0,3.61,1.4,6.35,4.2,8.25,2.8,1.9,6.23,2.85,10.31,2.85,2.85,0,5.48-.38,7.89-1.14,2.42-.76,4.53-1.82,6.33-3.2,1.8-1.37,3.2-3.03,4.2-4.98,1-1.94,1.49-4.1,1.49-6.47v-4.69Z"/>
            <path class="cls-1" d="m530.19,383.62h-17.36v-75.11h17.36v11.79c1.23-1.82,2.57-3.52,4.04-5.09,1.47-1.58,3.17-2.99,5.11-4.23,1.94-1.24,4.07-2.22,6.38-2.94,2.32-.72,4.94-1.08,7.87-1.08,8.51,0,15.08,2.61,19.72,7.82,4.63,5.22,6.95,12.23,6.95,21.05v47.8h-17.35v-42.58c0-5.87-1.39-10.39-4.16-13.55-2.77-3.17-6.7-4.75-11.77-4.75s-9.03,1.63-12.13,4.9c-3.1,3.27-4.65,7.83-4.65,13.69v42.29Z"/>
            <path class="cls-1" d="m621.95,360.11c0,3.33.8,5.73,2.42,7.21,1.61,1.48,3.89,2.21,6.83,2.21,3.7,0,7.26-.85,10.67-2.56v14.08c-2.18,1.23-4.51,2.18-6.97,2.85-2.47.66-5.31,1-8.53,1s-6.04-.38-8.71-1.14c-2.68-.76-5-2-6.96-3.71-1.96-1.71-3.47-3.97-4.52-6.77-1.05-2.8-1.58-6.3-1.58-10.48v-39.64h-9.53v-14.65h9.53v-20.63h17.35v20.63h20.2v14.65h-20.2v36.96Z"/>
            <path class="cls-1" d="m659.64,296.98v-16.36h18.63v16.36h-18.63Zm.71,86.63v-75.11h17.35v75.11h-17.35Z"/>
            <path class="cls-1" d="m745.99,383.62v-9.25c-2.56,3.04-5.83,5.6-9.82,7.68-3.98,2.08-8.82,3.13-14.51,3.13-3.61,0-7.02-.5-10.24-1.49s-6.04-2.46-8.46-4.41c-2.42-1.94-4.36-4.36-5.83-7.25-1.47-2.89-2.21-6.23-2.21-10.03v-.28c0-4.08.76-7.63,2.28-10.67,1.52-3.03,3.63-5.55,6.33-7.54,2.7-1.99,5.93-3.48,9.67-4.48,3.75-1,7.8-1.49,12.16-1.49s8.42.28,11.59.85c3.18.57,6.24,1.33,9.18,2.28v-1.85c0-5.21-1.59-9.2-4.77-11.95-3.18-2.75-7.75-4.13-13.73-4.13-4.27,0-8.06.43-11.38,1.28-3.32.85-6.69,1.99-10.1,3.41l-4.69-13.8c4.17-1.9,8.44-3.41,12.8-4.55,4.36-1.14,9.62-1.71,15.79-1.71,11.19,0,19.49,2.77,24.89,8.32,5.41,5.55,8.11,13.35,8.11,23.4v44.52h-17.07Zm.43-31.86c-2.18-.85-4.77-1.56-7.75-2.13s-6.14-.85-9.46-.85c-5.41,0-9.63,1.04-12.66,3.13-3.04,2.09-4.55,5.07-4.55,8.96v.28c0,3.61,1.4,6.35,4.2,8.25,2.8,1.9,6.23,2.85,10.31,2.85,2.85,0,5.48-.38,7.89-1.14,2.42-.76,4.53-1.82,6.33-3.2,1.8-1.37,3.2-3.03,4.2-4.98,1-1.94,1.5-4.1,1.5-6.47v-4.69Z"/>
            <path class="cls-1" d="m846.84,397.41c-7.02,6.16-16.98,9.25-29.87,9.25s-23.71-2.99-33.57-8.96l6.4-12.94c3.98,2.46,8.16,4.41,12.52,5.83,4.36,1.42,9.1,2.13,14.22,2.13,7.68,0,13.56-1.95,17.64-5.86,4.08-3.91,6.12-9.67,6.12-17.29v-5.86c-3.13,4.12-6.78,7.47-10.95,10.06-4.18,2.59-9.34,3.88-15.51,3.88-4.46,0-8.73-.78-12.8-2.35-4.08-1.56-7.71-3.86-10.88-6.9-3.18-3.03-5.71-6.73-7.61-11.1-1.9-4.36-2.85-9.34-2.85-14.94s.95-10.57,2.85-14.94c1.9-4.36,4.43-8.06,7.61-11.1,3.18-3.03,6.83-5.36,10.95-6.97,4.13-1.61,8.37-2.42,12.73-2.42,6.35,0,11.59,1.27,15.72,3.81,4.12,2.54,7.66,5.58,10.6,9.12v-11.36h17.21v59.75c0,13.28-3.51,23-10.53,29.16Zm-8.18-63.6c-1.19-2.59-2.77-4.78-4.77-6.57-1.99-1.79-4.34-3.18-7.04-4.17-2.7-.99-5.53-1.48-8.46-1.48s-5.83.5-8.39,1.48c-2.56.99-4.81,2.38-6.76,4.17-1.95,1.79-3.46,3.96-4.55,6.5-1.09,2.54-1.64,5.37-1.64,8.48s.57,5.93,1.71,8.48c1.14,2.54,2.65,4.73,4.55,6.57,1.9,1.84,4.15,3.25,6.76,4.24s5.38,1.48,8.32,1.48,5.76-.49,8.46-1.48,5.05-2.4,7.04-4.24c1.99-1.84,3.58-4,4.77-6.5,1.18-2.5,1.78-5.3,1.78-8.41s-.59-5.96-1.78-8.55Z"/>
            <path class="cls-1" d="m951.75,361.28c-2.04,4.74-4.84,8.89-8.39,12.45-3.56,3.56-7.8,6.38-12.73,8.46-4.93,2.08-10.29,3.13-16.07,3.13s-10.98-1.02-15.86-3.06c-4.89-2.04-9.1-4.84-12.66-8.39-3.56-3.56-6.33-7.68-8.32-12.38-1.99-4.69-2.99-9.74-2.99-15.15s1.02-10.5,3.06-15.29c2.04-4.79,4.84-8.96,8.39-12.52,3.56-3.56,7.77-6.38,12.66-8.46,4.88-2.08,10.22-3.13,16-3.13s11.12,1.02,16,3.06c4.88,2.04,9.1,4.84,12.66,8.39,3.56,3.56,6.33,7.71,8.32,12.45,1.99,4.74,2.99,9.82,2.99,15.22s-1.02,10.48-3.06,15.22Zm-15.99-24.33c-1.13-2.94-2.71-5.52-4.74-7.75-2.03-2.23-4.43-3.98-7.21-5.26-2.78-1.28-5.87-1.92-9.26-1.92s-6.48.64-9.26,1.92c-2.78,1.28-5.16,3.01-7.14,5.19-1.98,2.18-3.49,4.72-4.52,7.61-1.04,2.89-1.55,6-1.55,9.32s.56,6.47,1.7,9.46c1.13,2.99,2.71,5.57,4.73,7.75,2.03,2.18,4.43,3.91,7.21,5.19,2.78,1.28,5.82,1.92,9.12,1.92,3.49,0,6.62-.64,9.4-1.92,2.78-1.28,5.16-3.01,7.14-5.19,1.98-2.18,3.49-4.72,4.52-7.61,1.04-2.89,1.56-6,1.56-9.32s-.57-6.45-1.7-9.39Z"/>
          </g>
          <g>
            <path class="cls-1" d="m408.41,438.88c-.59,1.23-1.41,2.24-2.46,3.05-1.05.81-2.28,1.42-3.71,1.84-1.42.42-2.94.62-4.56.62-2.25,0-4.54-.4-6.85-1.18-2.31-.79-4.46-1.96-6.43-3.5l3.2-4.86c1.7,1.27,3.43,2.22,5.19,2.88,1.76.65,3.45.98,5.07.98s2.74-.31,3.59-.92c.85-.61,1.28-1.43,1.28-2.46v-.12c0-.59-.19-1.11-.56-1.54-.38-.43-.89-.82-1.54-1.16-.65-.33-1.4-.63-2.25-.89-.85-.26-1.73-.52-2.64-.8-1.15-.36-2.3-.75-3.47-1.19-1.17-.43-2.21-1-3.14-1.69-.93-.69-1.69-1.54-2.28-2.55-.59-1.01-.89-2.26-.89-3.76v-.12c0-1.46.29-2.79.86-3.97s1.36-2.19,2.37-3.02c1.01-.83,2.19-1.46,3.56-1.9,1.36-.43,2.82-.65,4.36-.65,1.98,0,3.97.32,5.99.95,2.02.63,3.85,1.5,5.51,2.61l-2.85,5.1c-1.5-.91-3.02-1.63-4.56-2.17-1.54-.53-2.96-.8-4.27-.8-1.38,0-2.46.3-3.23.89-.77.59-1.16,1.34-1.16,2.25v.12c0,.55.2,1.04.59,1.45s.92.79,1.57,1.13c.65.34,1.4.65,2.25.95.85.3,1.73.58,2.64.86,1.15.36,2.29.77,3.44,1.25,1.15.47,2.18,1.06,3.11,1.75.93.69,1.69,1.53,2.28,2.52.59.99.89,2.19.89,3.62v.12c0,1.66-.3,3.1-.89,4.33Z"/>
            <path class="cls-1" d="m446.35,407.7v-6.82h7.77v6.82h-7.77Zm.3,36.11v-31.3h7.23v31.3h-7.23Z"/>
            <path class="cls-1" d="m523.39,413.38c1.72-1.02,3.77-1.53,6.14-1.53,3.44,0,6.13,1.04,8.07,3.11,1.94,2.07,2.91,5.03,2.91,8.86v19.98h-7.23v-17.74c0-2.48-.55-4.38-1.65-5.68-1.1-1.3-2.66-1.95-4.66-1.95s-3.57.66-4.81,1.98c-1.24,1.32-1.86,3.24-1.86,5.77v17.63h-7.23v-17.8c0-2.44-.55-4.32-1.65-5.62-1.1-1.3-2.66-1.95-4.66-1.95s-3.62.69-4.84,2.07c-1.22,1.38-1.83,3.29-1.83,5.74v17.57h-7.23v-31.3h7.23v4.79c.51-.72,1.07-1.39,1.66-2.03.59-.64,1.27-1.22,2.04-1.74.77-.52,1.64-.93,2.61-1.23.97-.3,2.04-.45,3.23-.45,2.25,0,4.16.51,5.72,1.53,1.56,1.02,2.76,2.36,3.58,4.04,1.27-1.68,2.76-3.02,4.48-4.04Z"/>
            <path class="cls-1" d="m599.31,412.5h7.23v31.3h-7.23v-4.91c-1.03,1.52-2.31,2.82-3.84,3.92-1.54,1.1-3.51,1.64-5.91,1.64-3.55,0-6.29-1.09-8.22-3.26-1.93-2.17-2.9-5.1-2.9-8.77v-19.92h7.23v17.74c0,2.45.58,4.33,1.73,5.65,1.16,1.32,2.79,1.98,4.91,1.98s3.76-.68,5.05-2.04c1.29-1.36,1.94-3.26,1.94-5.71v-17.63Z"/>
            <path class="cls-1" d="m645.61,443.8v-43.28h7.23v43.28h-7.23Z"/>
            <path class="cls-1" d="m710.95,443.8v-3.85c-1.07,1.27-2.43,2.33-4.09,3.2-1.66.87-3.68,1.3-6.05,1.3-1.5,0-2.93-.21-4.27-.62-1.34-.42-2.52-1.03-3.53-1.84-1.01-.81-1.82-1.82-2.43-3.02-.61-1.21-.92-2.6-.92-4.18v-.12c0-1.7.32-3.18.95-4.45.63-1.27,1.51-2.31,2.64-3.14,1.13-.83,2.47-1.45,4.03-1.87,1.56-.42,3.25-.62,5.07-.62s3.51.12,4.83.36c1.33.24,2.6.55,3.82.95v-.77c0-2.17-.66-3.83-1.99-4.98-1.32-1.15-3.23-1.72-5.72-1.72-1.78,0-3.36.18-4.74.53-1.38.36-2.79.83-4.21,1.42l-1.96-5.75c1.74-.79,3.52-1.42,5.34-1.9,1.82-.47,4.01-.71,6.58-.71,4.66,0,8.12,1.16,10.38,3.47,2.25,2.31,3.38,5.56,3.38,9.75v18.56h-7.11Zm.18-13.28c-.91-.36-1.99-.65-3.23-.89-1.24-.24-2.56-.36-3.94-.36-2.25,0-4.01.44-5.28,1.31-1.27.87-1.9,2.11-1.9,3.74v.12c0,1.5.58,2.65,1.75,3.44,1.16.79,2.6,1.19,4.3,1.19,1.19,0,2.28-.16,3.29-.47,1.01-.32,1.89-.76,2.64-1.33s1.33-1.27,1.75-2.08c.42-.81.62-1.71.62-2.7v-1.96Z"/>
            <path class="cls-1" d="m839.39,434.5c-.85,1.98-2.02,3.71-3.5,5.19-1.48,1.48-3.25,2.66-5.31,3.53-2.06.87-4.29,1.3-6.7,1.3s-4.58-.43-6.61-1.27c-2.04-.85-3.79-2.02-5.28-3.5-1.48-1.48-2.64-3.2-3.47-5.16s-1.25-4.06-1.25-6.31.43-4.38,1.28-6.37c.85-1.99,2.02-3.74,3.5-5.22,1.48-1.48,3.24-2.66,5.28-3.53,2.04-.87,4.26-1.31,6.67-1.31s4.63.43,6.67,1.28,3.79,2.01,5.28,3.5,2.64,3.21,3.47,5.19c.83,1.98,1.24,4.09,1.24,6.34s-.43,4.37-1.27,6.34Zm-6.66-10.14c-.47-1.22-1.13-2.3-1.98-3.23-.84-.93-1.85-1.66-3-2.19-1.16-.53-2.44-.8-3.86-.8s-2.7.27-3.86.8c-1.16.53-2.15,1.26-2.98,2.16-.82.91-1.45,1.97-1.89,3.17s-.65,2.5-.65,3.88.23,2.7.71,3.94c.47,1.24,1.13,2.32,1.97,3.23.85.91,1.85,1.63,3.01,2.16,1.16.53,2.43.8,3.8.8,1.45,0,2.76-.27,3.92-.8,1.16-.53,2.15-1.25,2.97-2.16.83-.91,1.45-1.97,1.89-3.17.43-1.2.65-2.5.65-3.88s-.24-2.69-.71-3.91Z"/>
            <path class="cls-1" d="m884.83,443.8h-7.23v-31.3h7.23v7.06c.99-2.37,2.39-4.27,4.21-5.69,1.82-1.42,4.11-2.08,6.88-1.96v7.59h-.41c-1.58,0-3.02.26-4.33.77-1.3.51-2.43,1.28-3.38,2.31-.95,1.03-1.68,2.32-2.19,3.88-.51,1.56-.77,3.37-.77,5.42v11.92Z"/>
            <path class="cls-1" d="m772.23,443.83v-5.22c-1.14,1.62-2.57,3.01-4.29,4.15s-3.84,1.72-6.36,1.72c-1.85,0-3.65-.36-5.39-1.07s-3.27-1.77-4.62-3.17c-1.34-1.4-2.42-3.11-3.25-5.13-.83-2.02-1.24-4.33-1.24-6.94s.4-4.92,1.21-6.94c.81-2.02,1.88-3.73,3.23-5.13,1.34-1.4,2.89-2.46,4.65-3.17,1.75-.71,3.56-1.07,5.41-1.07,2.56,0,4.7.55,6.39,1.66,1.7,1.11,3.12,2.39,4.26,3.86v-16.85h7.24v43.3h-7.24Zm-.62-19.81c-.49-1.23-1.15-2.28-1.98-3.17-.83-.89-1.79-1.57-2.9-2.05s-2.25-.71-3.43-.71-2.38.23-3.46.68c-1.08.46-2.04,1.12-2.87,1.99-.83.87-1.48,1.93-1.95,3.17-.47,1.25-.71,2.66-.71,4.24s.24,2.94.71,4.18c.47,1.25,1.12,2.3,1.95,3.17.83.87,1.78,1.54,2.87,2.02,1.08.47,2.24.71,3.46.71s2.33-.24,3.43-.71,2.07-1.16,2.9-2.05c.83-.89,1.49-1.95,1.98-3.17.49-1.23.74-2.61.74-4.15s-.25-2.93-.74-4.15Z"/>
          </g>
        </g>
      </g>
    </g>
  </g>
</svg>