<?xml version="1.0" encoding="UTF-8"?><svg id="uuid-109de908-fe44-4cb2-afd8-68674ff99a50" xmlns="http://www.w3.org/2000/svg" viewBox="0 0 256 256"><g id="uuid-d5c84856-5ed1-49e7-af9d-06f4037aed9e"><path d="m230.045,232.961v.008l.04,10.231h-6.794v-20.708h0v-20.621H32.711v20.621h0v20.708h-6.77v-10.239s-1.175-31.249-1.103-43.948c.016-3.23.071-7.016.143-11.168h31.685v19.835h138.472v-19.835h35.884c.071,4.151.127,7.937.143,11.168.056,12.318-1.079,42.408-1.079,42.408l-.04,1.54Z" fill="#65bffc" stroke-width="0"/><path d="m218.798,49.835c-1.405-5.643-180.047-5.635-181.61,0l.04-.254.087-.603.341-2.278c.476-3.238,1.032-7.001,1.032-7.001l10.779-11.517,10.088-15.382h136.884l10.096,15.382,10.795,11.517s1.024,7.056,1.468,10.136Z" fill="#65bffc" stroke-width="0"/><rect x="36.52" y="205.68" width="182.961" height="13.447" fill="#65bffc" stroke-width="0"/><path d="m226.204,127.057l-7.406-73.587c0-2.526-48.321-3.564-90.793-3.564s-90.801,1.038-90.801,3.564l-7.406,73.587-3.478,34.495c-.085.876.653,1.633,1.586,1.633h200.191c.942,0,1.671-.757,1.586-1.633l-3.478-34.495ZM40.783,55.916c7.703-1.347,42.074-2.446,87.221-2.446s79.51,1.1,87.213,2.446l7.16,71.141H33.623l7.16-71.141Z" fill="#65bffc" stroke-width="0"/><rect x="60.475" y="169.166" width="130.852" height="17.359" fill="#65bffc" stroke-width="0"/><path d="m230.045,232.961v.008l.04,10.231h-6.794v-20.708h0v-20.621H32.711v20.621h0v20.708h-6.77v-10.239s-1.175-31.249-1.103-43.948c.016-3.23.071-7.016.143-11.168h31.685v19.835h138.472v-19.835h35.884c.071,4.151.127,7.937.143,11.168.056,12.318-1.079,42.408-1.079,42.408l-.04,1.54Z" fill="#ce0e2d" stroke-width="0"/><path d="m218.798,49.835c-1.405-5.643-180.047-5.635-181.61,0l.04-.254.087-.603.341-2.278c.476-3.238,1.032-7.001,1.032-7.001l10.779-11.517,10.088-15.382h136.884l10.096,15.382,10.795,11.517s1.024,7.056,1.468,10.136Z" fill="#ce0e2d" stroke-width="0"/><rect x="36.52" y="205.68" width="182.961" height="13.447" fill="#ce0e2d" stroke-width="0"/><path d="m226.204,127.057l-7.406-73.587c0-2.526-48.321-3.564-90.793-3.564s-90.801,1.038-90.801,3.564l-7.406,73.587-3.478,34.495c-.085.876.653,1.633,1.586,1.633h200.191c.942,0,1.671-.757,1.586-1.633l-3.478-34.495ZM40.783,55.916c7.703-1.347,42.074-2.446,87.221-2.446s79.51,1.1,87.213,2.446l7.16,71.141H33.623l7.16-71.141Z" fill="#ce0e2d" stroke-width="0"/><rect x="60.475" y="169.166" width="130.852" height="17.359" fill="#ce0e2d" stroke-width="0"/></g></svg>