<?xml version="1.0" encoding="UTF-8"?><svg id="uuid-e6512038-be46-4b75-8591-7f6f83e4891b" xmlns="http://www.w3.org/2000/svg" viewBox="0 0 907.125 269.929"><g id="uuid-b4ab654e-0773-4fc5-a2e0-6dfe96a161dd"><g id="uuid-8e76ff48-5d7a-4705-9297-548d7e8e2d38"><rect x="383.148" y="48.993" width="408.046" height="45.129" fill="#fff" stroke-width="0"/><g id="uuid-e3cd475d-a579-4b6f-94dc-285f4de3f933"><path d="m665.281,61.928c-1.188-.927-2.871-1.395-5.04-1.395h-8.433v11.088h8.487c2.07,0,3.717-.504,4.941-1.503,1.224-1.008,1.836-2.367,1.836-4.059,0-1.827-.594-3.204-1.791-4.131Zm0,0c-1.188-.927-2.871-1.395-5.04-1.395h-8.433v11.088h8.487c2.07,0,3.717-.504,4.941-1.503,1.224-1.008,1.836-2.367,1.836-4.059,0-1.827-.594-3.204-1.791-4.131Zm187.497-19.449H309.619c-4.941,0-8.982,4.041-8.982,8.982v40.608c0,4.941,4.041,8.982,8.982,8.982h543.159c4.941,0,8.991-4.041,8.991-8.982v-40.608c0-4.941-4.05-8.982-8.991-8.982Zm-418.005,45.729h-5.733v-23.58l-10.377,15.498h-.189l-10.287-15.408v23.49h-5.733v-32.886h6.156l10.008,15.552,9.999-15.552h6.156v32.886Zm80.001,0h-24.57v-32.886h24.336v5.211h-18.603v8.46h16.488v5.211h-16.488v8.784h18.837v5.22Zm78.219-27.531h-10.431v27.531h-5.823v-27.531h-10.431v-5.355h26.685v5.355Zm74.178,27.531l-8.109-11.466h-7.254v11.466h-5.733v-32.886h14.661c1.881,0,3.573.243,5.094.729s2.808,1.17,3.852,2.07c1.053.891,1.854,1.989,2.421,3.285.558,1.296.846,2.745.846,4.347,0,1.377-.198,2.601-.585,3.69-.396,1.08-.936,2.034-1.62,2.862-.693.828-1.512,1.53-2.475,2.115-.954.576-2.007,1.026-3.168,1.341l8.883,12.447h-6.813Zm91.512-9.918c-.846,2.07-2.043,3.879-3.573,5.427-1.539,1.557-3.348,2.781-5.445,3.69-2.106.909-4.419,1.359-6.957,1.359s-4.851-.441-6.948-1.332c-2.106-.891-3.906-2.106-5.409-3.645-1.503-1.53-2.673-3.33-3.519-5.4-.846-2.07-1.269-4.257-1.269-6.579s.423-4.509,1.269-6.579c.846-2.061,2.034-3.87,3.573-5.418,1.53-1.557,3.348-2.781,5.445-3.69,2.097-.909,4.419-1.368,6.948-1.368s4.86.45,6.957,1.341c2.097.891,3.897,2.106,5.4,3.645,1.503,1.53,2.682,3.33,3.528,5.4.846,2.07,1.269,4.257,1.269,6.579s-.423,4.509-1.269,6.57Zm-7.92-14.742c-.981-1.071-2.169-1.917-3.546-2.538-1.377-.63-2.88-.945-4.509-.945s-3.123.306-4.491.918c-1.359.612-2.529,1.44-3.492,2.493-.972,1.044-1.737,2.286-2.286,3.708-.54,1.422-.819,2.934-.819,4.536,0,1.593.279,3.105.819,4.527.549,1.431,1.323,2.673,2.304,3.735.99,1.071,2.169,1.917,3.546,2.538,1.377.63,2.88.945,4.509.945s3.132-.306,4.491-.918,2.529-1.44,3.501-2.493c.972-1.044,1.728-2.286,2.277-3.708.549-1.431.819-2.934.819-4.536,0-1.593-.27-3.105-.819-4.536-.549-1.422-1.314-2.664-2.304-3.726Zm-83.691,2.511c0-1.827-.594-3.204-1.791-4.131-1.188-.927-2.871-1.395-5.04-1.395h-8.433v11.088h8.487c2.07,0,3.717-.504,4.941-1.503,1.224-1.008,1.836-2.367,1.836-4.059Z" fill="#ce0e2d" stroke-width="0"/><path d="m321.697,140.042c.598,1.28,1.688,2.477,3.273,3.585,1.582,1.11,3.764,2.134,6.545,3.072,2.78.94,6.311,1.921,10.59,2.945,4.705,1.196,8.878,2.518,12.515,3.969,3.637,1.452,6.651,3.222,9.048,5.313,2.396,2.092,4.215,4.525,5.455,7.297,1.24,2.775,1.862,6.039,1.862,9.794,0,4.269-.785,8.066-2.351,11.394-1.566,3.329-3.747,6.146-6.54,8.45-2.792,2.305-6.149,4.055-10.068,5.249-3.921,1.194-8.228,1.793-12.92,1.793-6.913,0-13.529-1.175-19.844-3.521-6.318-2.346-12.163-5.953-17.54-10.818l9.475-11.266c4.352,3.757,8.747,6.638,13.186,8.642,4.437,2.007,9.474,3.009,15.107,3.009,4.865,0,8.726-1.024,11.586-3.072,2.858-2.049,4.288-4.821,4.288-8.322,0-1.62-.278-3.072-.834-4.352s-1.585-2.453-3.081-3.521c-1.498-1.066-3.552-2.069-6.161-3.009-2.611-.938-6.011-1.92-10.204-2.944-4.792-1.108-9.05-2.347-12.77-3.713-3.723-1.364-6.845-3.073-9.37-5.121-2.524-2.048-4.451-4.523-5.777-7.425-1.326-2.9-1.988-6.443-1.988-10.626,0-3.924.76-7.489,2.285-10.69,1.525-3.2,3.619-5.953,6.286-8.258,2.666-2.305,5.873-4.075,9.622-5.313,3.747-1.236,7.839-1.856,12.278-1.856,6.572,0,12.483.96,17.732,2.88,5.249,1.921,10.178,4.717,14.787,8.386l-8.45,11.906c-4.097-2.987-8.152-5.269-12.163-6.849-4.013-1.578-8.066-2.369-12.163-2.369-4.609,0-8.194,1.047-10.754,3.137-2.56,2.092-3.84,4.631-3.84,7.617,0,1.793.298,3.329.898,4.609Z" fill="#fff" stroke-width="0"/><path d="m429.109,201.622v-8.322c-2.305,2.733-5.249,5.037-8.834,6.913-3.585,1.876-7.937,2.817-13.059,2.817-3.245,0-6.317-.448-9.218-1.344-2.902-.896-5.441-2.218-7.617-3.969-2.177-1.748-3.927-3.924-5.249-6.529-1.324-2.602-1.984-5.611-1.984-9.026v-.256c0-3.669.682-6.869,2.048-9.602,1.364-2.73,3.265-4.993,5.698-6.786,2.433-1.792,5.333-3.136,8.706-4.032,3.371-.896,7.02-1.344,10.946-1.344,4.097,0,7.573.256,10.434.768,2.858.512,5.611,1.196,8.258,2.049v-1.664c0-4.693-1.43-8.278-4.288-10.754-2.861-2.474-6.978-3.713-12.355-3.713-3.841,0-7.256.384-10.242,1.152-2.989.768-6.018,1.793-9.09,3.073l-4.225-12.419c3.755-1.706,7.596-3.073,11.522-4.097,3.924-1.024,8.662-1.536,14.21-1.536,10.07,0,17.54,2.496,22.405,7.489,4.865,4.993,7.298,12.015,7.298,21.06v40.072h-15.364Zm.384-28.678c-1.964-.768-4.289-1.408-6.977-1.921-2.689-.512-5.527-.768-8.514-.768-4.865,0-8.664.94-11.394,2.817-2.733,1.878-4.097,4.567-4.097,8.066v.256c0,3.245,1.258,5.719,3.777,7.425,2.516,1.708,5.611,2.561,9.282,2.561,2.561,0,4.929-.34,7.105-1.024,2.177-.682,4.075-1.642,5.698-2.881,1.62-1.236,2.88-2.73,3.776-4.481.896-1.749,1.344-3.691,1.344-5.826v-4.224Z" fill="#fff" stroke-width="0"/><path d="m478.526,201.622h-15.62v-67.598h15.62v10.607c1.106-1.637,2.317-3.165,3.638-4.585,1.319-1.42,2.851-2.69,4.596-3.811,1.743-1.12,3.659-2.002,5.744-2.649,2.086-.646,4.447-.97,7.087-.97,7.66,0,13.575,2.348,17.745,7.041,4.169,4.695,6.256,11.01,6.256,18.948v43.017h-15.619v-38.318c0-5.279-1.249-9.347-3.746-12.199-2.497-2.853-6.028-4.279-10.597-4.279-4.486,0-8.123,1.47-10.914,4.407-2.793,2.939-4.189,7.048-4.189,12.325v38.064Z" fill="#fff" stroke-width="0"/><path d="m561.103,180.472c0,2.997.724,5.159,2.177,6.485,1.45,1.329,3.499,1.991,6.144,1.991,3.329,0,6.53-.768,9.603-2.305v12.675c-1.964,1.111-4.055,1.965-6.274,2.561-2.22.596-4.78.896-7.681.896-2.82,0-5.434-.342-7.841-1.026-2.412-.685-4.498-1.797-6.262-3.338-1.764-1.539-3.119-3.57-4.064-6.094-.948-2.523-1.42-5.668-1.42-9.432v-35.674h-8.578v-13.187h8.578v-18.564h15.619v18.564h18.18v13.187h-18.18v33.261Z" fill="#fff" stroke-width="0"/><path d="m595.028,123.654v-14.723h16.771v14.723h-16.771Zm.64,77.969v-67.598h15.619v67.598h-15.619Z" fill="#fff" stroke-width="0"/><path d="m672.741,201.622v-8.322c-2.305,2.733-5.249,5.037-8.834,6.913-3.585,1.876-7.938,2.817-13.06,2.817-3.246,0-6.317-.448-9.219-1.344s-5.44-2.218-7.617-3.969c-2.177-1.748-3.927-3.924-5.249-6.529-1.325-2.602-1.985-5.611-1.985-9.026v-.256c0-3.669.682-6.869,2.049-9.602,1.364-2.73,3.265-4.993,5.698-6.786,2.433-1.792,5.333-3.136,8.705-4.032,3.371-.896,7.02-1.344,10.947-1.344,4.097,0,7.575.256,10.433.768,2.858.512,5.613,1.196,8.26,2.049v-1.664c0-4.693-1.432-8.278-4.291-10.754-2.861-2.474-6.976-3.713-12.354-3.713-3.841,0-7.256.384-10.243,1.152-2.988.768-6.018,1.793-9.089,3.073l-4.225-12.419c3.755-1.706,7.596-3.073,11.522-4.097,3.924-1.024,8.662-1.536,14.212-1.536,10.07,0,17.538,2.496,22.403,7.489,4.865,4.993,7.298,12.015,7.298,21.06v40.072h-15.361Zm.384-28.678c-1.965-.768-4.291-1.408-6.979-1.921s-5.526-.768-8.513-.768c-4.865,0-8.665.94-11.395,2.817-2.732,1.878-4.097,4.567-4.097,8.066v.256c0,3.245,1.258,5.719,3.777,7.425,2.516,1.708,5.611,2.561,9.283,2.561,2.561,0,4.928-.34,7.104-1.024,2.177-.682,4.076-1.642,5.699-2.881,1.62-1.236,2.879-2.73,3.776-4.481.896-1.749,1.346-3.691,1.346-5.826v-4.224Z" fill="#fff" stroke-width="0"/><path d="m763.51,214.04c-6.317,5.547-15.279,8.322-26.886,8.322-11.266,0-21.339-2.689-30.213-8.066l5.76-11.65c3.585,2.218,7.34,3.969,11.267,5.249,3.924,1.28,8.193,1.921,12.802,1.921,6.914,0,12.205-1.758,15.875-5.273,3.67-3.517,5.506-8.705,5.506-15.565v-5.273c-2.817,3.706-6.103,6.723-9.857,9.05-3.758,2.329-8.409,3.49-13.956,3.49-4.012,0-7.853-.704-11.522-2.113-3.671-1.408-6.936-3.476-9.795-6.209-2.86-2.73-5.142-6.059-6.848-9.986-1.709-3.924-2.561-8.406-2.561-13.442s.852-9.516,2.561-13.443c1.706-3.925,3.988-7.253,6.848-9.986,2.858-2.73,6.146-4.821,9.859-6.274,3.713-1.45,7.532-2.176,11.458-2.176,5.717,0,10.435,1.142,14.148,3.426,3.712,2.285,6.89,5.019,9.537,8.208v-10.226h15.491v53.771c0,11.951-3.158,20.696-9.473,26.245Zm-7.362-57.239c-1.067-2.331-2.497-4.301-4.289-5.911-1.793-1.61-3.904-2.861-6.336-3.751-2.433-.89-4.974-1.336-7.618-1.336-2.732,0-5.249.447-7.554,1.336-2.303.89-4.332,2.141-6.08,3.751-1.751,1.61-3.118,3.561-4.097,5.849-.983,2.288-1.472,4.831-1.472,7.628s.512,5.341,1.536,7.629c1.024,2.288,2.388,4.261,4.097,5.913,1.706,1.652,3.732,2.924,6.08,3.814s4.843,1.335,7.49,1.335,5.185-.444,7.618-1.335,4.544-2.162,6.336-3.814c1.793-1.653,3.222-3.603,4.289-5.849,1.066-2.247,1.6-4.769,1.6-7.565s-.534-5.361-1.6-7.694Z" fill="#fff" stroke-width="0"/><path d="m857.929,181.522c-1.836,4.269-4.352,8.001-7.553,11.202-3.201,3.2-7.021,5.742-11.459,7.617-4.438,1.876-9.262,2.817-14.467,2.817-5.121,0-9.88-.919-14.275-2.753-4.398-1.834-8.194-4.353-11.395-7.553-3.201-3.201-5.698-6.914-7.489-11.138-1.793-4.225-2.689-8.77-2.689-13.635s.916-9.452,2.753-13.762c1.834-4.309,4.352-8.066,7.553-11.266,3.201-3.201,6.997-5.739,11.395-7.618,4.395-1.876,9.195-2.816,14.403-2.816s10.006.918,14.403,2.752c4.395,1.836,8.194,4.353,11.395,7.554,3.201,3.2,5.696,6.936,7.489,11.202,1.793,4.268,2.689,8.834,2.689,13.698s-.917,9.432-2.753,13.699Zm-14.392-21.893c-1.018-2.645-2.439-4.971-4.264-6.977-1.824-2.005-3.985-3.585-6.488-4.737-2.503-1.152-5.279-1.728-8.333-1.728s-5.833.576-8.336,1.728c-2.503,1.152-4.645,2.71-6.424,4.673-1.781,1.964-3.14,4.247-4.072,6.849-.932,2.605-1.398,5.399-1.398,8.386s.508,5.826,1.526,8.514c1.017,2.689,2.437,5.015,4.261,6.978,1.825,1.964,3.987,3.52,6.49,4.673s5.239,1.728,8.208,1.728c3.137,0,5.957-.576,8.459-1.728,2.503-1.152,4.645-2.708,6.426-4.673,1.781-1.963,3.138-4.245,4.07-6.85.933-2.602,1.401-5.397,1.401-8.386s-.511-5.803-1.526-8.45Z" fill="#fff" stroke-width="0"/><path d="m368.919,251.364c-.534,1.103-1.272,2.02-2.215,2.748-.943.73-2.055,1.28-3.335,1.654-1.28.374-2.65.56-4.108.56-2.028,0-4.082-.356-6.163-1.066-2.081-.712-4.012-1.761-5.79-3.149l2.882-4.376c1.529,1.139,3.086,2.001,4.669,2.588,1.583.588,3.103.881,4.562.881,1.387,0,2.462-.275,3.228-.828.764-.551,1.148-1.289,1.148-2.214v-.107c0-.533-.17-.995-.507-1.388-.339-.39-.801-.737-1.388-1.041-.587-.301-1.263-.567-2.028-.799-.765-.231-1.557-.472-2.375-.721-1.032-.32-2.072-.676-3.121-1.067-1.05-.39-1.993-.898-2.828-1.52-.836-.622-1.521-1.388-2.055-2.294-.533-.908-.8-2.037-.8-3.388v-.107c0-1.316.258-2.507.773-3.575s1.228-1.974,2.135-2.722c.907-.747,1.974-1.316,3.201-1.708,1.228-.39,2.535-.587,3.922-.587,1.778,0,3.575.284,5.389.853,1.814.57,3.468,1.353,4.962,2.348l-2.561,4.59c-1.352-.819-2.721-1.468-4.108-1.949-1.388-.479-2.668-.719-3.842-.719-1.245,0-2.215.266-2.908.799-.693.534-1.04,1.21-1.04,2.028v.107c0,.499.177.933.533,1.307s.827.712,1.414,1.014c.587.302,1.262.587,2.028.853.764.266,1.556.526,2.375.774,1.031.32,2.062.694,3.094,1.121,1.031.426,1.965.951,2.801,1.574.835.622,1.521,1.379,2.055,2.267.534.89.8,1.974.8,3.254v.107c0,1.493-.266,2.793-.8,3.895Z" fill="#fff" stroke-width="0"/><path d="m403.068,223.297v-6.135h6.99v6.135h-6.99Zm.266,32.496v-28.174h6.51v28.174h-6.51Z" fill="#fff" stroke-width="0"/><path d="m472.399,228.406c1.548-.916,3.389-1.374,5.526-1.374,3.097,0,5.516.933,7.259,2.802,1.745,1.867,2.616,4.527,2.616,7.977v17.982h-6.509v-15.97c0-2.236-.496-3.939-1.487-5.111-.992-1.17-2.39-1.757-4.196-1.757-1.77,0-3.213.596-4.329,1.784-1.115,1.19-1.673,2.92-1.673,5.19v15.865h-6.51v-16.024c0-2.199-.497-3.886-1.488-5.057-.992-1.17-2.39-1.757-4.195-1.757s-3.258.622-4.355,1.864c-1.098,1.242-1.647,2.964-1.647,5.163v15.811h-6.51v-28.174h6.51v4.313c.462-.645.96-1.255,1.493-1.83.532-.575,1.145-1.094,1.839-1.562.694-.466,1.476-.834,2.347-1.103.87-.269,1.839-.405,2.906-.405,2.026,0,3.742.459,5.146,1.374,1.404.914,2.48,2.126,3.226,3.634,1.139-1.508,2.483-2.72,4.031-3.634Z" fill="#fff" stroke-width="0"/><path d="m540.732,227.619h6.509v28.174h-6.509v-4.42c-.923,1.364-2.075,2.54-3.458,3.527-1.385.987-3.158,1.48-5.321,1.48-3.193,0-5.659-.978-7.396-2.934-1.737-1.956-2.607-4.588-2.607-7.897v-17.929h6.51v15.97c0,2.202.518,3.896,1.559,5.084,1.041,1.19,2.513,1.784,4.419,1.784,1.868,0,3.384-.612,4.548-1.837,1.164-1.224,1.746-2.936,1.746-5.136v-15.865Z" fill="#fff" stroke-width="0"/><path d="m582.404,255.793v-38.951h6.509v38.951h-6.509Z" fill="#fff" stroke-width="0"/><path d="m641.204,255.793v-3.469c-.96,1.139-2.187,2.099-3.682,2.882-1.493.782-3.308,1.173-5.442,1.173-1.353,0-2.634-.186-3.843-.56-1.21-.374-2.267-.925-3.174-1.654-.908-.73-1.638-1.636-2.189-2.722-.552-1.085-.826-2.339-.826-3.762v-.106c0-1.529.284-2.863.853-4.002s1.361-2.081,2.375-2.829c1.014-.747,2.223-1.307,3.628-1.681,1.405-.374,2.925-.56,4.562-.56,1.708,0,3.158.107,4.349.32,1.193.213,2.339.499,3.442.853v-.694c0-1.955-.596-3.45-1.788-4.481-1.191-1.032-2.908-1.548-5.148-1.548-1.6,0-3.024.161-4.268.481-1.246.32-2.509.747-3.789,1.28l-1.761-5.175c1.565-.712,3.167-1.28,4.803-1.708,1.636-.427,3.61-.64,5.922-.64,4.197,0,7.31,1.041,9.338,3.121,2.028,2.081,3.042,5.008,3.042,8.778v16.701h-6.403Zm.161-11.952c-.819-.32-1.788-.587-2.909-.801-1.12-.213-2.303-.32-3.548-.32-2.028,0-3.61.392-4.749,1.175-1.139.783-1.708,1.903-1.708,3.362v.106c0,1.353.526,2.384,1.575,3.095,1.048.712,2.337,1.067,3.868,1.067,1.067,0,2.055-.141,2.961-.427.907-.284,1.699-.685,2.375-1.2s1.2-1.139,1.574-1.868c.374-.728.561-1.538.561-2.427v-1.761Z" fill="#fff" stroke-width="0"/><path d="m756.804,247.415c-.765,1.779-1.815,3.335-3.149,4.669-1.334,1.334-2.925,2.392-4.775,3.176-1.851.782-3.86,1.173-6.03,1.173-2.135,0-4.118-.383-5.949-1.146-1.833-.765-3.415-1.815-4.749-3.149s-2.375-2.881-3.122-4.642c-.747-1.761-1.121-3.655-1.121-5.683s.383-3.939,1.148-5.736c.765-1.795,1.815-3.362,3.149-4.696,1.334-1.334,2.915-2.391,4.748-3.174,1.833-.783,3.834-1.175,6.003-1.175s4.17.383,6.003,1.148c1.833.765,3.415,1.813,4.749,3.147,1.334,1.334,2.375,2.891,3.122,4.669.747,1.779,1.12,3.682,1.12,5.71s-.383,3.932-1.146,5.71Zm-5.998-9.125c-.424-1.102-1.017-2.071-1.778-2.908-.759-.835-1.661-1.493-2.704-1.974-1.044-.479-2.2-.721-3.473-.721s-2.431.241-3.473.721c-1.044.481-1.937,1.13-2.678,1.947-.741.819-1.309,1.77-1.697,2.855s-.582,2.25-.582,3.494.211,2.428.636,3.549c.424,1.12,1.015,2.09,1.776,2.908.761.819,1.661,1.466,2.705,1.947,1.042.481,2.183.721,3.42.721,1.307,0,2.483-.24,3.527-.721,1.042-.481,1.935-1.129,2.677-1.947.743-.817,1.309-1.769,1.697-2.855.389-1.084.584-2.248.584-3.494s-.213-2.419-.636-3.522Z" fill="#fff" stroke-width="0"/><path d="m797.703,255.793h-6.509v-28.174h6.509v6.35c.889-2.133,2.153-3.841,3.789-5.121,1.636-1.28,3.7-1.868,6.189-1.761v6.831h-.372c-1.423,0-2.722.231-3.896.694-1.173.462-2.187,1.155-3.042,2.08-.853.926-1.513,2.09-1.974,3.496-.463,1.405-.694,3.033-.694,4.882v10.725Z" fill="#fff" stroke-width="0"/><path d="m696.357,255.813v-4.698c-1.03,1.46-2.317,2.705-3.862,3.737s-3.452,1.548-5.725,1.548c-1.669,0-3.284-.32-4.847-.961s-2.947-1.593-4.155-2.856c-1.207-1.263-2.182-2.803-2.929-4.618-.745-1.815-1.119-3.897-1.119-6.246s.364-4.431,1.092-6.246c.727-1.815,1.695-3.354,2.903-4.618,1.207-1.263,2.601-2.216,4.181-2.856,1.579-.641,3.204-.961,4.873-.961,2.308,0,4.226.498,5.752,1.494,1.527.997,2.805,2.154,3.836,3.471v-15.162h6.514v38.972h-6.514Zm-.558-17.831c-.444-1.103-1.038-2.056-1.783-2.856-.744-.801-1.614-1.415-2.607-1.842s-2.021-.64-3.086-.64c-1.1,0-2.137.205-3.113.613-.976.41-1.836,1.006-2.581,1.789-.745.783-1.331,1.735-1.756,2.856-.425,1.121-.638,2.394-.638,3.817,0,1.388.213,2.643.638,3.763.425,1.121,1.011,2.074,1.756,2.856.745.783,1.605,1.388,2.581,1.815.976.427,2.014.641,3.113.641,1.064,0,2.093-.214,3.086-.641s1.862-1.041,2.607-1.841c.745-.802,1.339-1.753,1.783-2.856.443-1.103.665-2.349.665-3.737s-.222-2.634-.665-3.737Z" fill="#fff" stroke-width="0"/><path d="m256.04,239.529v.008l.041,10.504h-6.975v-21.26h0v-21.171H53.443v21.171h0v21.26h-6.951v-10.512s-1.206-32.082-1.133-45.12c.016-3.317.073-7.204.147-11.465h32.53v20.364h142.165v-20.364h36.841c.073,4.262.13,8.149.147,11.465.057,12.647-1.108,43.539-1.108,43.539l-.041,1.581Z" fill="#ce0e2d" stroke-width="0"/><path d="m244.493,51.519c-1.442-5.794-184.848-5.786-186.453,0l.041-.261.09-.619.35-2.339c.489-3.325,1.059-7.187,1.059-7.187l11.066-11.824,10.357-15.792h140.535l10.365,15.792,11.082,11.824s1.051,7.244,1.508,10.406Z" fill="#ce0e2d" stroke-width="0"/><rect x="57.354" y="211.521" width="187.841" height="13.806" fill="#ce0e2d" stroke-width="0"/><path d="m252.096,130.801l-7.604-75.55c0-2.593-49.61-3.659-93.215-3.659s-93.223,1.066-93.223,3.659l-7.604,75.55-3.571,35.415c-.087.9.671,1.677,1.629,1.677h205.529c.967,0,1.716-.777,1.629-1.677l-3.571-35.415ZM61.731,57.763c7.909-1.383,43.197-2.512,89.547-2.512s81.63,1.129,89.539,2.512l7.351,73.038H54.38l7.351-73.038Z" fill="#ce0e2d" stroke-width="0"/><rect x="81.948" y="174.033" width="134.342" height="17.822" fill="#ce0e2d" stroke-width="0"/></g></g></g></svg>