<?xml version="1.0" encoding="UTF-8"?><svg id="uuid-078226fd-1c33-4f3b-90b7-b5f6e5c642ca" xmlns="http://www.w3.org/2000/svg" viewBox="0 0 512 512"><path d="m34.91,448.05h81.45v-197.82L0,162.96v250.18c0,19.32,15.65,34.91,34.91,34.91" style="fill:#fff; stroke-width:0px;"/><path d="m395.64,448.05h81.45c19.32,0,34.91-15.65,34.91-34.91v-250.18l-116.36,87.27" style="fill:#fff; stroke-width:0px;"/><path d="m395.64,98.96v151.27l116.36-87.27v-46.55c0-43.17-49.28-67.78-83.78-41.89" style="fill:#fff; stroke-width:0px;"/><path d="m116.36,250.23V98.96l139.64,104.73,139.64-104.73v151.27l-139.64,104.73" style="fill:#fff; stroke-width:0px;"/><path d="m0,116.41v46.55l116.36,87.27V98.96l-32.58-24.44C49.22,48.63,0,73.24,0,116.41" style="fill:#fff; stroke-width:0px;"/></svg>