<?xml version="1.0" encoding="UTF-8"?><svg id="uuid-18c7c693-c83c-4e56-a14c-c9211217180c" xmlns="http://www.w3.org/2000/svg" viewBox="0 0 82 82"><path d="m3.512,79.922l1.563-5.554c.286-1.015-.319-2.078-1.182-2.078H1.253c-.869,0-1.474-1.077-1.177-2.095l2.551-8.746c.18-.617.65-1.028,1.177-1.028h4.308c.532,0,1.006-.419,1.182-1.044l1.55-5.508c.286-1.015-.319-2.078-1.182-2.078h-2.402c-.855,0-1.458-1.044-1.188-2.055l1.761-6.588c.17-.638.649-1.068,1.188-1.068h4.252c.532,0,1.006-.419,1.182-1.044l1.854-6.588c.286-1.015-.319-2.078-1.182-2.078h-.524c-.961,0-1.564-1.295-1.087-2.336l2.03-4.43c.223-.487.638-.787,1.087-.787h1.498c.532,0,1.006-.419,1.182-1.044l1.246-4.43c.286-1.015-.319-2.078-1.182-2.078h0c-1.05,0-1.634-1.514-.978-2.537l1.458-2.272c.238-.37.597-.586.978-.586h.939c.532,0,1.006-.419,1.182-1.044l2.752-9.78c.176-.626.65-1.044,1.182-1.044h5.564c.821,0,1.42.969,1.211,1.959l-1.678,7.951c-.209.99.39,1.959,1.211,1.959h15.606c.821,0,1.42-.969,1.211-1.959l-1.678-7.951c-.209-.99.39-1.959,1.211-1.959h5.564c.532,0,1.006.419,1.182,1.044l2.752,9.78c.176.626.65,1.044,1.182,1.044h.939c.38,0,.74.216.978.586l1.458,2.272c.656,1.022.072,2.537-.978,2.537h0c-.863,0-1.467,1.063-1.182,2.078l1.246,4.43c.176.626.65,1.044,1.182,1.044h1.498c.449,0,.864.3,1.087.787l2.03,4.43c.477,1.041-.126,2.336-1.087,2.336h-.523c-.863,0-1.467,1.063-1.182,2.078l1.854,6.588c.176.626.65,1.044,1.182,1.044h3.386c.539,0,1.018.43,1.188,1.068l1.761,6.589c.27,1.011-.333,2.055-1.188,2.055h-1.536c-.863,0-1.467,1.063-1.182,2.078l1.55,5.507c.176.626.65,1.044,1.182,1.044h4.308c.527,0,.997.411,1.177,1.028l2.551,8.746c.297,1.018-.308,2.095-1.177,2.095h-2.639c-.863,0-1.467,1.063-1.182,2.078l1.563,5.554c.286,1.015-.319,2.078-1.182,2.078h-11.113c-.569,0-1.066-.478-1.211-1.164l-1.558-7.382c-.145-.686-.642-1.164-1.211-1.164H19.786c-.569,0-1.066.478-1.211,1.164l-1.558,7.382c-.145.686-.642,1.164-1.211,1.164H4.693c-.863,0-1.467-1.063-1.182-2.078ZM30.465,24.816h21.071c.821,0,1.42-.969,1.211-1.959l-.935-4.43c-.145-.686-.642-1.164-1.211-1.164h-19.201c-.569,0-1.066.478-1.211,1.164l-.935,4.43c-.209.99.39,1.959,1.211,1.959Zm-3.643,17.263h28.357c.821,0,1.42-.969,1.211-1.959l-1.39-6.587c-.145-.686-.642-1.164-1.211-1.164h-25.577c-.569,0-1.066.478-1.211,1.164l-1.39,6.587c-.209.99.39,1.959,1.211,1.959Zm-3.871,18.341h36.099c.821,0,1.42-.969,1.211-1.959l-1.162-5.507c-.145-.686-.642-1.164-1.211-1.164H24.113c-.569,0-1.066.478-1.211,1.164l-1.162,5.508c-.209.99.39,1.959,1.211,1.959Z" fill="#fff" stroke-width="0"/></svg>