<?xml version="1.0" encoding="UTF-8"?><svg id="uuid-6aa84736-18ad-4e74-af80-6b064c95e44a" xmlns="http://www.w3.org/2000/svg" viewBox="0 0 82 82"><path d="m80.87,1.13c-9.11-4.26-32.17,3.72-44.99,20.73-2.51,3.33-4.72,6.38-6.61,9.07-2.05-.76-12.72-4.4-17.97-.39C5.48,35,0,47.33,0,47.33l6.21,3.59s7.59-14.71,14.68-7.4c.13.13.25.26.37.4l16.82,16.82c.14.12.27.24.4.37,7.31,7.09-7.4,14.68-7.4,14.68l3.59,6.21s12.33-5.48,16.79-11.3c4-5.23.39-15.85-.38-17.95,2.69-1.9,5.74-4.11,9.07-6.62,17-12.83,24.99-35.89,20.72-45Zm-30.81,38.58c-2.15,2.14-5.62,2.14-7.76-.01-2.15-2.14-2.15-5.61,0-7.76s5.61-2.14,7.76.01c2.14,2.14,2.14,5.61,0,7.76Zm15.13-12.87c-2.77,2.77-7.26,2.77-10.03,0s-2.77-7.26,0-10.03,7.26-2.77,10.03,0c2.77,2.77,2.77,7.26,0,10.03Z" fill="#fff" stroke-width="0"/><path d="m30.934,60.699l-2.208-2.206c-4.014,10.433-13.444,8.227-13.444,8.227,0,0-2.206-9.429,8.227-13.444l-2.206-2.206c-5.82-1.004-13.245,6.019-14.45,12.84-1.202,6.821-1.404,12.639-1.404,12.639,0,0,5.818-.199,12.641-1.404,6.824-1.205,13.846-8.627,12.843-14.447Z" fill="#fff" stroke-width="0"/><path d="m20.89,43.52c-.01.01-.01.02-.01.02l.38.38c-.12-.14-.24-.27-.37-.4Zm17.19,17.22l.38.38s.01,0,.02-.01c-.13-.13-.26-.25-.4-.37Z" fill="#fff" stroke-width="0"/></svg>