<?xml version="1.0" encoding="UTF-8"?><svg id="uuid-67d9b0fa-489f-4a61-a2d0-187a2f3cbaff" xmlns="http://www.w3.org/2000/svg" viewBox="0 0 82 82"><path d="m80.971,76.005l-18.413-18.414c2.18-2.665,3.963-5.641,5.285-8.834,1.773-4.278,2.685-8.864,2.685-13.494,0-6.974-2.068-13.792-5.943-19.591-3.875-5.799-9.382-10.319-15.826-12.987C42.316.015,35.226-.683,28.385.677c-6.84,1.361-13.123,4.719-18.054,9.652C5.398,15.26,2.041,21.543.679,28.383c-1.36,6.84-.662,13.931,2.008,20.374,2.668,6.444,7.187,11.952,12.987,15.826,5.799,3.875,12.617,5.943,19.591,5.943,4.631,0,9.216-.912,13.494-2.685,3.193-1.322,6.169-3.105,8.834-5.285l18.414,18.413c.325.329.711.589,1.137.766.427.177.884.267,1.346.266.461.001.919-.089,1.344-.266.426-.177.813-.437,1.137-.766.657-.659,1.027-1.551,1.027-2.481s-.369-1.824-1.027-2.482Zm-34.953-14.877c-5.135,2.127-10.784,2.683-16.235,1.599-5.45-1.085-10.457-3.761-14.386-7.69-3.93-3.93-6.606-8.935-7.69-14.386-1.083-5.451-.527-11.1,1.599-16.234,2.127-5.135,5.729-9.522,10.35-12.61,4.621-3.088,10.052-4.736,15.61-4.736,7.452,0,14.598,2.96,19.868,8.23,5.27,5.27,8.23,12.417,8.23,19.868,0,5.558-1.648,10.991-4.736,15.611-3.087,4.621-7.475,8.221-12.609,10.349Z" fill="#fff" stroke-width="0"/></svg>