<?xml version="1.0" encoding="UTF-8"?>
<svg id="Capa_1" data-name="Capa 1" xmlns="http://www.w3.org/2000/svg" viewBox="0 0 1024 1024">
  <defs>
    <style>
      .cls-1 {
        fill: #fff;
        stroke-width: 0px;
      }
    </style>
  </defs>
  <path class="cls-1" d="m721.16,473.33c4.24,1.73,8.09,3.66,12.13,5.39,56.22,27.15,97.42,67.77,118.98,118.21,30.23,70.27,33.11,184.44-58.34,275.7-69.69,69.69-154.6,101.08-274.54,102.04h-.58c-135.15-.96-238.93-46.4-308.81-135.15-62.19-78.94-94.15-188.87-95.3-326.52v-.96c.96-137.66,32.92-247.59,95.11-326.52,69.89-88.75,173.85-134.19,309-135.15h.58c135.35.96,240.47,46.21,312.47,134.58,35.42,43.7,61.61,96.26,78.17,157.29l-77.78,20.79c-13.67-49.67-34.27-92.03-61.99-125.91-56.22-68.92-140.54-104.35-251.25-105.12-109.74.96-192.72,36.19-246.82,104.73-50.44,64.11-76.63,156.91-77.59,275.7.96,118.79,27.15,211.59,77.59,275.89,53.91,68.54,137.08,103.77,246.82,104.73,98.96-.77,164.42-24.26,218.9-78.74,62.19-61.99,61.03-138.23,41.2-184.63-11.74-27.34-32.92-50.06-61.42-67.19-7.12,51.79-22.72,92.99-47.55,124.76-32.92,41.97-79.71,64.69-139.97,67.96-45.44,2.5-89.14-8.47-123.02-30.8-40.05-26.57-63.53-67-66.04-114.17-4.81-92.99,68.73-159.8,183.29-166.34,40.62-2.31,78.74-.58,113.98,5.39-4.62-28.49-14.05-51.21-28.11-67.77-19.25-22.53-49.29-34.08-88.95-34.27h-1.35c-31.96,0-75.09,8.86-102.62,50.63l-66.23-45.44c36.97-56.03,96.84-86.83,169.04-86.83h1.54c120.52.77,192.33,76.05,199.65,207.35l-.39.39h.19Zm-300.34,132.46c2.5,48.32,54.68,70.85,105.12,67.96,49.29-2.7,105.12-21.95,114.55-140.93-25.41-5.58-53.52-8.47-83.56-8.47-9.24,0-18.48.19-27.72.77-82.59,4.62-110.13,44.67-108.2,80.48l-.19.19Z"/>
</svg>