<?xml version="1.0" encoding="UTF-8"?><svg id="uuid-1cfba8c2-4692-49b2-aa56-54892e97b01e" xmlns="http://www.w3.org/2000/svg" viewBox="0 0 512 512"><path d="m365.25,184.82c33.06,23.62,73.56,37.52,117.3,37.52v-84.13c-8.28,0-16.53-.86-24.63-2.58v66.22c-43.74,0-84.23-13.9-117.3-37.52v171.68c0,85.88-69.66,155.5-155.58,155.5-32.06,0-61.86-9.69-86.61-26.3,28.25,28.87,67.65,46.78,111.24,46.78,85.93,0,155.59-69.62,155.59-155.5v-171.68h0Zm30.39-84.87c-16.9-18.45-27.99-42.29-30.39-68.65v-10.82h-23.34c5.88,33.5,25.92,62.12,53.73,79.47h0Zm-242.87,299.37c-9.44-12.37-14.54-27.5-14.52-43.06,0-39.28,31.86-71.13,71.17-71.13,7.33,0,14.61,1.12,21.59,3.33v-86.01c-8.16-1.12-16.39-1.59-24.62-1.42v66.94c-6.99-2.21-14.27-3.34-21.6-3.33-39.31,0-71.17,31.84-71.17,71.13,0,27.78,15.93,51.83,39.15,63.54Z" style="fill:#ff004f; stroke-width:0px;"/><path d="m340.61,164.34c33.07,23.62,73.56,37.52,117.3,37.52v-66.22c-24.41-5.2-46.03-17.95-62.28-35.69-27.82-17.35-47.86-45.97-53.73-79.47h-61.32v336.01c-.14,39.17-31.95,70.89-71.17,70.89-23.11,0-43.65-11.01-56.65-28.07-23.22-11.71-39.15-35.77-39.15-63.54,0-39.28,31.86-71.13,71.17-71.13,7.53,0,14.79,1.17,21.6,3.33v-66.94c-84.41,1.74-152.3,70.68-152.3,155.46,0,42.32,16.91,80.69,44.34,108.72,24.75,16.61,54.55,26.3,86.61,26.3,85.92,0,155.58-69.62,155.58-155.5v-171.68h0Z" style="fill:#fff; stroke-width:0px;"/><path d="m457.91,135.63v-17.91c-22.02.03-43.6-6.13-62.28-17.78,16.53,18.09,38.31,30.57,62.28,35.69Zm-116.01-115.15c-.56-3.2-.99-6.42-1.29-9.66V0h-84.66v336.02c-.14,39.17-31.94,70.89-71.17,70.89-11.52,0-22.39-2.73-32.02-7.59,13,17.06,33.54,28.07,56.65,28.07,39.22,0,71.03-31.71,71.17-70.89V20.48h61.32Zm-135.52,180.55v-19.06c-7.07-.97-14.21-1.45-21.35-1.45-85.93,0-155.59,69.62-155.59,155.49,0,53.84,27.38,101.29,68.98,129.2-27.44-28.03-44.34-66.4-44.34-108.72,0-84.78,67.89-153.72,152.3-155.46Z" style="fill:#00f2ea; stroke-width:0px;"/></svg>