<?xml version="1.0" encoding="UTF-8"?><svg id="uuid-2a558c90-e2e5-4500-bc51-ca2ccf0c39f0" xmlns="http://www.w3.org/2000/svg" viewBox="0 0 82 82"><g id="uuid-e61009e4-580d-4f6a-a9e5-15dec03db61f"><path d="m41,27.333c-5.032,0-9.111-4.079-9.111-9.111s4.1-9.111,9.111-9.111c5.057,0,9.111,4.054,9.111,9.111s-4.079,9.111-9.111,9.111m0,22.778c-5.032,0-9.111-4.079-9.111-9.111s4.1-9.111,9.111-9.111c5.057,0,9.111,4.054,9.111,9.111s-4.079,9.111-9.111,9.111m0,22.778c-5.032,0-9.111-4.079-9.111-9.111s4.1-9.111,9.111-9.111c5.057,0,9.111,4.054,9.111,9.111s-4.079,9.111-9.111,9.111m36.444-41h-13.667v-5.193c7.835-2.05,13.667-9.111,13.667-17.584h-13.667v-4.556C63.778,2.04,61.738,0,59.222,0H22.778C20.262,0,18.222,2.04,18.222,4.556v4.556H4.556c0,8.473,5.831,15.534,13.667,17.584v5.193H4.556c0,8.473,5.831,15.534,13.667,17.584v5.193H4.556c0,8.473,5.831,15.534,13.667,17.584v5.193c0,2.516,2.04,4.556,4.556,4.556h36.444c2.516,0,4.556-2.04,4.556-4.556v-5.193c7.835-2.05,13.667-9.111,13.667-17.584h-13.667v-5.193c7.835-2.05,13.667-9.111,13.667-17.584Z" fill="#fff" stroke-width="0"/></g></svg>