<?xml version="1.0" encoding="UTF-8"?><svg id="uuid-931c1caf-3f08-479d-a6e1-4482ff45c034" xmlns="http://www.w3.org/2000/svg" viewBox="0 0 82 82"><path d="m70.08,56.32V14.39c0-7.95-6.44-14.39-14.39-14.39h-29.38c-7.95,0-14.39,6.44-14.39,14.39v41.93c0,6.02,4.39,11.04,10.13,12.04l-9.02,13.64h8.02l3.71-5.6h32.49l3.7,5.6h8.03l-9.03-13.64c5.75-1,10.13-6.02,10.13-12.04ZM21.04,19.89c0-1.81,1.46-3.27,3.27-3.27h33.38c1.81,0,3.28,1.46,3.28,3.27v13.81c0,1.8-1.47,3.27-3.28,3.27H24.31c-1.81,0-3.27-1.47-3.27-3.27v-13.81Zm3.11,40.01c-2.1,0-3.81-1.71-3.81-3.82s1.71-3.81,3.81-3.81,3.82,1.71,3.82,3.81-1.71,3.82-3.82,3.82Zm3.02,12.86l2.78-4.21h22.1l2.79,4.21h-27.67Zm30.68-12.86c-2.11,0-3.82-1.71-3.82-3.82s1.71-3.81,3.82-3.81,3.81,1.71,3.81,3.81-1.7,3.82-3.81,3.82Z" fill="#fff" stroke-width="0"/></svg>