<?xml version="1.0" encoding="UTF-8"?>
<svg id="Capa_1" data-name="Capa 1" xmlns="http://www.w3.org/2000/svg" viewBox="0 0 1024 1024">
  <defs>
    <style>
      .cls-1 {
        fill: #fff;
        stroke-width: 0px;
      }
    </style>
  </defs>
  <path class="cls-1" d="m953.79,289.81c-10.63-39.5-41.77-70.64-81.27-81.27-72.15-18.99-360.78-18.99-360.78-18.99,0,0-288.62,0-360.78,18.99-39.5,10.63-70.64,41.77-81.27,81.27-18.99,72.16-18.99,221.78-18.99,221.78,0,0,0,150.39,18.99,221.78,10.63,39.5,41.77,70.64,81.27,81.27,72.15,18.99,360.78,18.99,360.78,18.99,0,0,288.62,0,360.78-18.99,39.5-10.63,70.64-41.77,81.27-81.27,18.99-72.16,18.99-221.78,18.99-221.78,0,0,0-149.63-18.99-221.78Zm-534.71,360.78v-277.23l240.01,138.99-240.01,138.23Z"/>
</svg>